# xmcd
#
# Track frame offsets:
#  150
#  13987
#  32239
#  49759
#  73707
#  87099
#  101424
#  112403
#  127770
#  143044
#  179466
#  200008
#  221577
#
# Disc length: 3315 seconds
#
# Revision: 0
# Processed by: cddbd v1.5.1PL2 Copyright (c) Steve Scherf et al.
# Submitted via: Collectorz.com_Music_Collector 6.9
#
DISCID=c00cf10d
DTITLE=The Grasstrees - Grasstrees
DYEAR=2005
DGENRE=Blues
TTITLE0=How It Sits
TTITLE1=No Trace
TTITLE2=Loving A Wave
TTITLE3=Pulled Aside By Your Smile
TTITLE4=You Make It Work
TTITLE5=Roll Like A Train
TTITLE6=Out The Door
TTITLE7=Rising In My Blood
TTITLE8=Divine Song
TTITLE9=You And Your Way
TTITLE10=She's Alright
TTITLE11=Autonomously Happy
TTITLE12=Hard To Holler
EXTD=
EXTT0=
EXTT1=
EXTT2=
EXTT3=
EXTT4=
EXTT5=
EXTT6=
EXTT7=
EXTT8=
EXTT9=
EXTT10=
EXTT11=
EXTT12=
PLAYORDER=
